<?xml version="1.0" encoding="UTF-8" standalone="no"?><!DOCTYPE svg PUBLIC "-//W3C//DTD SVG 1.1//EN" "http://www.w3.org/Graphics/SVG/1.1/DTD/svg11.dtd"><svg width="100%" height="100%" viewBox="0 0 1080 1080" version="1.1" xmlns="http://www.w3.org/2000/svg" xmlns:xlink="http://www.w3.org/1999/xlink" xml:space="preserve" xmlns:serif="http://www.serif.com/" style="fill-rule:evenodd;clip-rule:evenodd;stroke-linejoin:round;stroke-miterlimit:2;"><rect id="_1080-x-1080-dark-transparent" serif:id="1080 x 1080 dark transparent" x="-0" y="0" width="1080" height="1080" style="fill:none;"/><g><path d="M538,196.744c1.238,-0.715 2.762,-0.715 4,-0c15.869,9.162 121.771,70.305 159.019,91.81c1.568,0.905 2.332,2.751 1.864,4.499c-0.469,1.749 -2.053,2.965 -3.864,2.965c-27.48,0 -84.048,0 -92.521,0c-0.702,0 -1.392,-0.185 -2,-0.536c-7.068,-4.081 -52.383,-30.243 -62.498,-36.083c-1.238,-0.715 -2.762,-0.715 -4,0c-6.956,4.016 -29.936,17.283 -34.846,20.118c-0.608,0.351 -1.113,0.856 -1.464,1.464c-6.678,11.567 -73.641,127.55 -80.319,139.117c-0.351,0.608 -0.856,1.113 -1.464,1.464c-5.419,3.129 -32.989,19.046 -40.689,23.492c-1.238,0.715 -2,2.035 -2,3.464c0,9.416 0,45.39 0,66.101c-0,1.81 -1.216,3.395 -2.965,3.864c-1.749,0.469 -3.594,-0.296 -4.499,-1.864c-13.74,-23.798 -42.024,-72.788 -46.261,-80.126c-0.351,-0.608 -0.536,-1.298 -0.536,-2c-0,-3.218 -0,-12.847 -0,-17.303c-0,-1.429 0.762,-2.75 2,-3.464c9.362,-5.405 48.674,-28.102 55.228,-31.886c0.608,-0.351 1.113,-0.856 1.464,-1.464c6.678,-11.567 73.641,-127.55 80.319,-139.117c0.351,-0.608 0.856,-1.113 1.464,-1.464c7.862,-4.539 63.289,-36.54 74.567,-43.051Z" style="fill:#f4f4f5;"/><path d="M241.731,370.087c-0,-1.429 0.762,-2.75 2,-3.464c15.869,-9.162 121.771,-70.305 159.019,-91.81c1.568,-0.905 3.548,-0.644 4.828,0.636c1.28,1.28 1.541,3.261 0.636,4.828c-13.74,23.798 -42.024,72.788 -46.261,80.126c-0.351,0.608 -0.856,1.113 -1.464,1.464c-7.068,4.081 -52.383,30.243 -62.498,36.083c-1.238,0.715 -2,2.035 -2,3.464c-0,8.032 -0,34.567 -0,40.236c0,0.702 0.185,1.392 0.536,2c6.678,11.567 73.641,127.55 80.319,139.117c0.351,0.608 0.536,1.298 0.536,2c-0,6.257 0,38.092 0,46.984c-0,1.429 0.762,2.75 2,3.464c8.155,4.708 39.309,22.695 57.245,33.051c1.568,0.905 2.332,2.751 1.864,4.499c-0.469,1.749 -2.053,2.965 -3.864,2.965c-27.48,-0 -84.048,-0 -92.521,-0c-0.702,0 -1.392,-0.185 -2,-0.536c-2.787,-1.609 -11.126,-6.423 -14.985,-8.651c-1.238,-0.715 -2,-2.035 -2,-3.464c0,-10.81 0,-56.204 0,-63.772c0,-0.702 -0.185,-1.392 -0.536,-2c-6.678,-11.567 -73.641,-127.55 -80.319,-139.117c-0.351,-0.608 -0.536,-1.298 -0.536,-2c0,-9.078 0,-73.08 0,-86.103Z" style="fill:#f4f4f5;"/><path d="M836.269,366.675c1.238,0.715 2,2.035 2,3.464l0,183.62c-0,1.81 -1.216,3.395 -2.965,3.864c-1.749,0.469 -3.594,-0.296 -4.499,-1.864c-13.74,-23.798 -42.024,-72.788 -46.261,-80.126c-0.351,-0.608 -0.536,-1.298 -0.536,-2c-0,-8.161 -0,-60.487 -0,-72.166c-0,-1.429 -0.762,-2.75 -2,-3.464c-6.956,-4.016 -29.936,-17.283 -34.846,-20.118c-0.608,-0.351 -1.298,-0.536 -2,-0.536c-13.356,0 -147.282,0 -160.639,0c-0.702,-0 -1.392,-0.185 -2,-0.536c-5.419,-3.129 -32.989,-19.046 -40.689,-23.492c-1.238,-0.715 -2.762,-0.715 -4,-0c-8.155,4.708 -39.309,22.695 -57.245,33.051c-1.568,0.905 -3.548,0.644 -4.828,-0.636c-1.28,-1.28 -1.541,-3.261 -0.636,-4.828c13.74,-23.798 42.024,-72.788 46.261,-80.126c0.351,-0.608 0.856,-1.113 1.464,-1.464c2.787,-1.609 11.126,-6.423 14.985,-8.651c1.238,-0.715 2.762,-0.715 4,-0c9.362,5.405 48.674,28.102 55.228,31.886c0.608,0.351 1.298,0.536 2,0.536c13.356,-0 147.282,-0 160.639,-0c0.702,0 1.392,0.185 2,0.536c7.862,4.539 63.289,36.54 74.567,43.051Z" style="fill:#f4f4f5;"/><path d="M542,883.256c-1.238,0.715 -2.762,0.715 -4,0c-15.869,-9.162 -121.771,-70.305 -159.019,-91.81c-1.568,-0.905 -2.332,-2.751 -1.864,-4.499c0.469,-1.749 2.053,-2.965 3.864,-2.965c27.48,-0 84.048,-0 92.521,-0c0.702,-0 1.392,0.185 2,0.536c7.068,4.081 52.383,30.243 62.498,36.083c1.238,0.715 2.762,0.715 4,-0c6.956,-4.016 29.936,-17.283 34.846,-20.118c0.608,-0.351 1.113,-0.856 1.464,-1.464c6.678,-11.567 73.641,-127.55 80.319,-139.117c0.351,-0.608 0.856,-1.113 1.464,-1.464c5.419,-3.129 32.989,-19.046 40.689,-23.492c1.238,-0.715 2,-2.035 2,-3.464c-0,-9.416 -0,-45.39 -0,-66.101c0,-1.81 1.216,-3.395 2.965,-3.864c1.749,-0.469 3.594,0.296 4.499,1.864c13.74,23.798 42.024,72.788 46.261,80.126c0.351,0.608 0.536,1.298 0.536,2c0,3.218 0,12.847 0,17.303c0,1.429 -0.762,2.75 -2,3.464c-9.362,5.405 -48.674,28.102 -55.228,31.886c-0.608,0.351 -1.113,0.856 -1.464,1.464c-6.678,11.567 -73.641,127.55 -80.319,139.117c-0.351,0.608 -0.856,1.113 -1.464,1.464c-7.862,4.539 -63.289,36.54 -74.567,43.051Z" style="fill:#f4f4f5;"/><path d="M838.269,709.913c0,1.429 -0.762,2.75 -2,3.464c-15.869,9.162 -121.771,70.305 -159.019,91.81c-1.568,0.905 -3.548,0.644 -4.828,-0.636c-1.28,-1.28 -1.541,-3.261 -0.636,-4.828c13.74,-23.798 42.024,-72.788 46.261,-80.126c0.351,-0.608 0.856,-1.113 1.464,-1.464c7.068,-4.081 52.383,-30.243 62.498,-36.083c1.238,-0.715 2,-2.035 2,-3.464c0,-8.032 0,-34.567 0,-40.236c-0,-0.702 -0.185,-1.392 -0.536,-2c-6.678,-11.567 -73.641,-127.55 -80.319,-139.117c-0.351,-0.608 -0.536,-1.298 -0.536,-2c0,-6.257 0,-38.092 0,-46.984c0,-1.429 -0.762,-2.75 -2,-3.464c-8.155,-4.708 -39.309,-22.695 -57.245,-33.051c-1.568,-0.905 -2.332,-2.751 -1.864,-4.499c0.469,-1.749 2.053,-2.965 3.864,-2.965c27.48,0 84.048,0 92.521,0c0.702,-0 1.392,0.185 2,0.536c2.787,1.609 11.126,6.423 14.985,8.651c1.238,0.715 2,2.035 2,3.464c-0,10.81 -0,56.204 -0,63.772c-0,0.702 0.185,1.392 0.536,2c6.678,11.567 73.641,127.55 80.319,139.117c0.351,0.608 0.536,1.298 0.536,2c-0,9.078 -0,73.08 -0,86.103Z" style="fill:#f4f4f5;"/><path d="M243.731,713.325c-1.238,-0.715 -2,-2.035 -2,-3.464c0,-18.323 0,-140.61 0,-183.62c0,-1.81 1.216,-3.395 2.965,-3.864c1.749,-0.469 3.594,0.296 4.499,1.864c13.74,23.798 42.024,72.788 46.261,80.126c0.351,0.608 0.536,1.298 0.536,2c0,8.161 0,60.487 0,72.166c0,1.429 0.762,2.75 2,3.464c6.956,4.016 29.936,17.283 34.846,20.118c0.608,0.351 1.298,0.536 2,0.536c13.356,-0 147.282,-0 160.639,-0c0.702,0 1.392,0.185 2,0.536c5.419,3.129 32.989,19.046 40.689,23.492c1.238,0.715 2.762,0.715 4,0c8.155,-4.708 39.309,-22.695 57.245,-33.051c1.568,-0.905 3.548,-0.644 4.828,0.636c1.28,1.28 1.541,3.261 0.636,4.828c-13.74,23.798 -42.024,72.788 -46.261,80.126c-0.351,0.608 -0.856,1.113 -1.464,1.464c-2.787,1.609 -11.126,6.423 -14.985,8.651c-1.238,0.715 -2.762,0.715 -4,0c-9.362,-5.405 -48.674,-28.102 -55.228,-31.886c-0.608,-0.351 -1.298,-0.536 -2,-0.536c-13.356,0 -147.282,0 -160.639,0c-0.702,-0 -1.392,-0.185 -2,-0.536c-7.862,-4.539 -63.289,-36.54 -74.567,-43.051Z" style="fill:#f4f4f5;"/></g></svg>