<?xml version="1.0" encoding="UTF-8"?>
<svg version="1.1" xmlns="http://www.w3.org/2000/svg" width="2000" height="2000">
<path d="M0 0 C8.84400445 7.44492567 16.91182517 15.7575527 25.08145142 23.92082214 C26.59798218 25.43261431 28.1147193 26.9441995 29.63164365 28.45559675 C33.78023245 32.5903605 37.92572722 36.72821391 42.07066107 40.86664116 C45.63074582 44.42032919 49.19266168 47.97217904 52.75459482 51.52401426 C64.99019334 63.72494786 77.2193584 75.93231862 89.4472006 88.14102473 C91.48050825 90.17111778 93.51387855 92.20114805 95.54725225 94.23117493 C115.02116712 113.6730395 134.49288057 133.1171073 153.95939064 152.56638622 C158.34431059 156.94736946 162.72926816 161.32831504 167.11425781 165.70922852 C167.65899015 166.25345918 168.20372248 166.79768985 168.76496185 167.35841235 C186.43297861 185.01000505 204.1119858 202.65053811 221.79720786 220.28489146 C239.99947388 238.43489721 258.19196491 256.59464108 276.37174901 274.76716706 C278.94093386 277.33532342 281.51022258 279.90337584 284.07957077 282.47136879 C284.83798853 283.22939949 284.83798853 283.22939949 285.61172786 284.00274394 C293.73395498 292.12028435 301.86624239 300.22767278 310.00230092 308.33134751 C318.18314575 316.48010449 326.3525779 324.64013242 334.51143433 332.81091287 C338.92812605 337.23342673 343.34950065 341.65097103 347.78416252 346.05547142 C351.84841479 350.09230647 355.89841549 354.14290343 359.93779902 358.20461837 C361.39672986 359.66676411 362.86069107 361.1239126 364.3303016 362.57532372 C379.07101215 377.14457601 389.94110253 393.15830719 390.24194336 414.65234375 C390.30846904 438.6822252 382.21983133 454.83099358 365.45727539 471.78323364 C362.8462047 474.40751676 360.22251314 477.01891152 357.59765625 479.62939453 C356.14778877 481.07869694 354.69836338 482.52844171 353.24934387 483.97859192 C349.33911718 487.88938938 345.42278142 491.79401567 341.50527191 495.69751596 C337.40307214 499.78716217 333.30658437 503.88252201 329.20947266 507.9772644 C321.46119291 515.71934294 313.7078318 523.45631168 305.9526062 531.19143188 C297.11911753 540.00251918 288.29134799 548.81932702 279.46404076 557.63660645 C261.31569157 575.76408443 243.16021586 593.88441069 225 612 C222.24597456 610.66780042 220.14204318 609.40249611 217.93359375 607.27734375 C217.09078857 606.47671509 217.09078857 606.47671509 216.23095703 605.65991211 C215.63911621 605.09151611 215.04727539 604.52312012 214.4375 603.9375 C208.49892642 598.33926123 202.44239436 593.01927285 196 588 C195.42056641 587.54802246 194.84113281 587.09604492 194.24414062 586.63037109 C144.2296661 547.82380343 83.36660317 522.8023902 20 518 C18.9790625 517.91758057 18.9790625 517.91758057 17.9375 517.83349609 C-43.60789656 512.96785024 -105.48964158 526.23660411 -160 555 C-160.7822998 555.40976074 -161.56459961 555.81952148 -162.37060547 556.24169922 C-172.32909999 561.48638966 -181.91187312 566.95107623 -190.9765625 573.64770508 C-194.37018132 576.11123768 -195.67048011 577 -200 577 C-201.66625136 575.83629596 -201.66625136 575.83629596 -203.3406477 574.16551018 C-204.30568573 573.21704367 -204.30568573 573.21704367 -205.29021949 572.24941623 C-205.98836353 571.54303142 -206.68650757 570.83664661 -207.4058075 570.1088562 C-208.15424874 569.36736049 -208.90268998 568.62586478 -209.67381126 567.8618995 C-212.19281496 565.3612701 -214.69719857 562.84648771 -217.2019043 560.33154297 C-218.99985382 558.54064712 -220.79864635 556.75059725 -222.59822083 554.96133423 C-226.98681977 550.59296579 -231.36585165 546.21520428 -235.74027934 541.83265017 C-239.30034864 538.26628262 -242.86411501 534.70364999 -246.43055153 531.14365005 C-247.19184053 530.38371353 -247.19184053 530.38371353 -247.96850911 529.60842476 C-248.99965377 528.57913136 -250.03080407 527.54984362 -251.06195996 526.52056147 C-260.74249558 516.85662274 -270.41032169 507.18004731 -280.07414011 497.49939574 C-288.89545659 488.66342345 -297.7312784 479.84212728 -306.57436194 471.02794407 C-315.66379609 461.96799279 -324.74387695 452.8987668 -333.81382114 443.81930268 C-334.84265664 442.78944469 -335.87150609 441.75960063 -336.90036964 440.72977066 C-337.40651957 440.22314434 -337.9126695 439.71651802 -338.43415731 439.19453939 C-341.98288724 435.64365469 -345.53753006 432.09875794 -349.09464073 428.5562706 C-353.90070782 423.76968592 -358.69325718 418.96994755 -363.47733879 414.16137314 C-365.22851144 412.40521742 -366.98388731 410.65324063 -368.74390793 408.90595245 C-391.40966044 386.39113851 -391.40966044 386.39113851 -396 371 C-396.37125 369.80375 -396.7425 368.6075 -397.125 367.375 C-401.76082069 349.49397732 -399.16760747 331.4185426 -390.953125 315.0390625 C-384.80587706 305.47394471 -376.82495133 297.53235524 -368.81893921 289.54478455 C-367.59240648 288.31379155 -366.36630263 287.0823711 -365.14058745 285.85056406 C-361.79249666 282.48837808 -358.43825639 279.13238809 -355.08289075 275.77746427 C-351.45682874 272.14974659 -347.83648837 268.51632602 -344.21533203 264.88371277 C-336.30731818 256.95291061 -328.3919045 249.02952174 -320.47502089 241.10757518 C-315.52743876 236.15672979 -310.58149 231.20425489 -305.63588333 226.25143623 C-291.92895239 212.52494986 -278.22045113 198.80003739 -264.50519371 185.08187008 C-263.62864839 184.20513719 -262.75210308 183.32840431 -261.84899578 182.42510376 C-260.07222723 180.64796897 -258.29545742 178.87083546 -256.51868634 177.0937032 C-255.63676301 176.21159706 -254.75483968 175.32949092 -253.84619141 174.4206543 C-252.96318456 173.5374669 -252.08017772 172.65427951 -251.17041309 171.74432886 C-236.86038569 157.43075918 -222.56214005 143.10548294 -208.26904349 128.77500849 C-193.57669096 114.04454321 -178.87496749 99.32348618 -164.16369689 84.61191374 C-155.91109928 76.35873235 -147.66247556 68.10166687 -139.42408371 59.8343029 C-132.41029444 52.79596052 -125.38789828 45.76634761 -118.35431592 38.74778264 C-114.76954921 35.17016772 -111.18886254 31.58871465 -107.6190834 27.99613953 C-104.34431515 24.70066091 -101.05798816 21.41716708 -97.7624907 18.14242167 C-96.57912959 16.96253235 -95.39988231 15.77849767 -94.22547214 14.58969866 C-69.13299478 -10.79002058 -31.614626 -21.78896525 0 0 Z " fill="#4B5FAB" transform="translate(1218,403)"/>
<path d="M0 0 C6.96946471 5.15090071 13.20620948 10.91709994 19.31075382 17.0506916 C20.19586184 17.93199395 21.08096986 18.8132963 21.99289933 19.72130477 C24.43315441 22.1513565 26.8672423 24.5875021 29.30029818 27.02475899 C31.9546638 29.68150338 34.614809 32.33245079 37.27419323 34.98416984 C41.92901536 39.6271763 46.58011902 44.27388163 51.2287693 48.92306709 C58.14170013 55.83679287 65.06030068 62.74482429 71.97994638 69.6518286 C85.77802968 83.42520387 99.56816146 97.20652464 113.35640425 110.98974998 C114.06997975 111.70306431 114.78355525 112.41637863 115.51875424 113.15130854 C116.59130203 114.22346591 116.59130203 114.22346591 117.68551744 115.31728303 C125.61611474 123.24479567 133.54842162 131.17059706 141.48078728 139.09634018 C165.4447317 163.0406416 189.40705758 186.98655977 213.36259556 210.93927193 C214.12841291 211.70499522 214.89423026 212.4707185 215.68325419 213.25964553 C218.78667342 216.36268628 221.89008541 219.46573427 224.99349565 222.56878401 C227.32923952 224.90425616 229.66498588 227.23972583 232.00073242 229.57519531 C233.15845892 230.73278977 233.15845892 230.73278977 234.33957383 231.91376998 C258.59418122 256.1654715 282.85836697 280.40755483 307.12963867 304.64257812 C334.4066098 331.87881283 361.67504178 359.12355952 388.93180317 386.38002002 C391.83884667 389.2869667 394.74592511 392.19387843 397.65302849 395.10076523 C398.36881178 395.8165044 399.08459507 396.53224358 399.82206876 397.26967182 C411.33399501 408.78047888 422.8540411 420.28312612 434.37698512 431.78290254 C445.95926413 443.3423263 457.53219063 454.91104863 469.09574122 466.48920794 C475.96242092 473.36403137 482.83591554 480.23186985 489.71949099 487.08977686 C494.32158783 491.67609737 498.91447289 496.27150922 503.50010201 500.8742946 C506.10993422 503.49337998 508.72344435 506.10846043 511.34828503 508.71251155 C528.45877924 525.69611132 543.95829288 542.44553996 544.38061523 567.85180664 C544.34391746 585.97572066 540.8446088 601.84308416 528.08410645 615.55326843 C527.60748204 616.06573582 527.13085763 616.57820321 526.63979006 617.10619992 C520.79489195 623.35072815 514.7576308 629.40628096 508.71679688 635.46020508 C507.42251674 636.76076937 506.12841917 638.06151537 504.83448792 639.36242676 C500.63274291 643.58495647 496.42589724 647.80238523 492.21875 652.01953125 C490.76062487 653.48171146 489.3025308 654.94392265 487.84446716 656.40616417 C480.99931053 663.2703043 474.15179149 670.13207681 467.30132532 676.99091798 C459.42588951 684.87614586 451.55882739 692.76960776 443.69867468 700.67006952 C437.5958353 706.80311926 431.48529159 712.92842465 425.36898279 719.04804152 C421.72700753 722.69235847 418.08836081 726.33985351 414.45787048 729.99561501 C411.04547559 733.43138678 407.62356577 736.85739498 404.19434929 740.27637482 C402.94410594 741.5261253 401.6972257 742.77925158 400.45414925 744.03613091 C385.129118 759.52165499 368.20618278 769.51371466 346 770.375 C324.03403221 769.52446589 307.76816111 760.27307812 292.48531818 744.86842823 C291.59031486 743.97838442 290.69531153 743.08834061 289.77318689 742.17132577 C287.3076025 739.7189773 284.85130702 737.25751183 282.39653823 734.79434361 C279.71724969 732.10921677 277.02925777 729.43282499 274.34240454 726.75527161 C269.64056014 722.06730653 264.94429138 717.37381399 260.25168991 712.6765976 C253.27346129 705.69152414 246.2866913 698.71504067 239.29828571 691.74015095 C226.09047954 678.55723396 212.89285765 665.36415295 199.69843916 652.16783843 C189.50946141 641.97748692 179.31788942 631.78973666 169.12448692 621.60381126 C167.65934504 620.13971972 166.19420452 618.67562682 164.72906535 617.21153256 C164.00176377 616.48475031 163.27446218 615.75796807 162.52512115 615.00916212 C161.79648101 614.28104212 161.06784087 613.55292213 160.31712073 612.80273789 C159.22231292 611.70871607 159.22231292 611.70871607 158.10538779 610.5925928 C137.58191147 590.08369641 117.06158276 569.57165499 96.54770374 549.05315876 C95.77461289 548.27989595 95.00152204 547.50663314 94.20500419 546.70993813 C90.28679326 542.79083833 86.3686103 538.87171056 82.45043711 534.95257304 C81.67229204 534.17423694 80.89414697 533.39590084 80.09242175 532.59397879 C78.51882504 531.01999499 76.94522995 529.44600957 75.37163647 527.87202254 C50.88307467 503.3774899 26.38382896 478.89368841 1.8762207 454.41821289 C-25.66595177 426.91212138 -53.19973291 399.39766849 -80.72139722 371.87105626 C-83.65621652 368.93576699 -86.59106567 366.00050758 -89.52593422 363.06526756 C-90.24855418 362.34254521 -90.97117415 361.61982286 -91.71569169 360.87519984 C-102.62086627 349.96883079 -113.53260281 339.06905609 -124.44771385 328.17263222 C-136.86135954 315.78022915 -149.2662691 303.37915787 -161.65960475 290.96644173 C-168.59317122 284.02255386 -175.53354219 277.08563618 -182.48396134 270.15861599 C-187.12931543 265.52751504 -191.76547556 260.88734247 -196.39435574 256.23977583 C-199.02970026 253.5943017 -201.66874472 250.95284953 -204.31907286 248.32237939 C-222.35000894 230.41750841 -235.28882072 214.71414567 -236.3125 188.1875 C-235.98965544 177.66956415 -233.93213301 167.98282603 -229.25 158.5625 C-228.93933594 157.93714355 -228.62867188 157.31178711 -228.30859375 156.66748047 C-222.46865396 145.64197661 -213.43926217 137.14094772 -204.71191406 128.42138672 C-203.36874401 127.07222295 -202.02598168 125.72265315 -200.68359375 124.37271118 C-197.05599973 120.72753947 -193.42202748 117.08879312 -189.78627491 113.45176077 C-187.51075032 111.17480976 -185.23665781 108.89643847 -182.9630661 106.61755753 C-175.01916296 98.65518392 -167.07014307 90.69796046 -159.11621094 82.74560547 C-151.72088307 75.35147936 -144.33678748 67.94626681 -136.957865 60.5357722 C-130.60468529 54.15638697 -124.24376294 47.78479191 -117.87682891 41.41913426 C-114.08191671 37.62473027 -110.29012647 33.8273342 -106.50611115 30.02206039 C-102.94611004 26.44260398 -99.37650847 22.87300088 -95.79953003 19.31051254 C-94.49447781 18.0075402 -93.19277902 16.70119827 -91.89485931 15.39112091 C-83.18853216 6.60859635 -74.53973138 -1.11005131 -62.875 -5.8125 C-61.96492188 -6.19019531 -61.05484375 -6.56789063 -60.1171875 -6.95703125 C-40.23477336 -13.60941793 -17.62826913 -11.44754876 0 0 Z " fill="#F6A81C" transform="translate(1442,24)"/>
<path d="M0 0 C18.64335769 -0.80905137 35.19016642 6.68096598 48.99488449 18.70815277 C51.90031693 21.46242555 54.74513647 24.27013463 57.56787109 27.10839844 C58.64449197 28.17629558 59.72193585 29.24336352 60.80012512 30.30967712 C63.68674481 33.16984599 66.56076962 36.04234423 69.43163633 38.91831493 C71.83672965 41.32556509 74.2477882 43.72679811 76.65872538 46.12819314 C82.34030135 51.78770441 88.01131082 57.45764955 93.67578125 63.13427734 C99.51680037 68.98743843 105.37608671 74.82185484 111.24434221 80.64769816 C116.29655088 85.66473314 121.33713261 90.69324246 126.36852324 95.73115468 C129.36804202 98.73430052 132.37184889 101.73281544 135.38703537 104.72023773 C138.21264454 107.52078529 141.02349579 110.33533741 143.82347679 113.16150093 C144.85392288 114.19669434 145.88953966 115.22676948 146.93055534 116.25133324 C148.34749973 117.64748031 149.74435599 119.06392876 151.13998413 120.48138428 C152.32174508 121.662642 152.32174508 121.662642 153.52737999 122.86776352 C155.0703125 125.16015625 155.0703125 125.16015625 154.9324131 127.76312637 C153.73239642 131.09971589 151.79729458 133.79631863 149.7578125 136.66015625 C102.1083567 206.06489278 86.17449811 294.76071961 101.44152832 376.98522949 C106.25532052 402.24251303 114.21624053 426.37329618 124.21313477 450.02416992 C124.58438728 450.90410362 124.9556398 451.78403732 125.3381424 452.69063568 C126.24821817 454.84741691 127.15895869 457.00391482 128.0703125 459.16015625 C96.98440611 490.36061684 65.88525318 521.54781969 34.76838862 552.71740678 C31.09110247 556.40094613 27.41392565 560.0845946 23.73681641 563.76831055 C23.00479752 564.50164099 22.27277863 565.23497143 21.51857735 565.990524 C9.68081916 577.85001266 -2.14806954 589.71830988 -13.97367872 601.58991145 C-26.11659572 613.77965873 -38.26905445 625.95983248 -50.4303416 638.13125283 C-57.92847764 645.63623437 -65.41915704 653.14850033 -72.90033542 660.6703865 C-78.03777305 665.83434363 -83.18448701 670.98893595 -88.33843686 676.13641249 C-91.30751776 679.10230484 -94.27248677 682.07200906 -97.2264595 685.05295563 C-99.93897846 687.79005993 -102.66313461 690.51502928 -105.39642416 693.23138738 C-106.83397085 694.66586798 -108.25931405 696.11254745 -109.68396294 697.55983824 C-118.2343987 706.0140685 -128.26876571 713.68233747 -139.9296875 717.16015625 C-141.1259375 717.53140625 -142.3221875 717.90265625 -143.5546875 718.28515625 C-161.35978385 722.90129234 -178.65795444 720.04753303 -194.671875 711.4296875 C-203.03034348 705.60682157 -210.18456913 698.0540706 -217.36798096 690.86903381 C-218.26250623 689.97818523 -219.15703149 689.08733665 -220.07866359 688.16949266 C-222.53224315 685.72580236 -224.98278495 683.27908653 -227.43276119 680.83178437 C-230.0867564 678.18173094 -232.74356318 675.53449844 -235.39993286 672.88682556 C-241.79446256 666.51193823 -248.18425465 660.13231264 -254.57342827 653.75205794 C-256.98345171 651.34554925 -259.39379035 648.9393564 -261.80414571 646.53318017 C-272.44204823 635.91372165 -283.07860552 625.29291786 -293.71113968 614.66808414 C-296.30546378 612.07566959 -298.89979331 609.48326046 -301.49414062 606.89086914 C-302.13886577 606.24662774 -302.78359091 605.60238634 -303.44785318 604.93862247 C-313.90562031 594.48916617 -324.3718859 584.04826533 -334.84170476 573.61088569 C-345.60952747 562.87615254 -356.36978778 552.13388598 -367.12267566 541.38419241 C-373.15288877 535.35614116 -379.1863307 529.33140221 -385.2282486 523.31508064 C-390.36931522 518.19574579 -395.50347048 513.06960342 -400.62882569 507.93453676 C-403.24126215 505.31756467 -405.85677682 502.70388499 -408.48119736 500.09892654 C-411.33154912 497.26953016 -414.16601871 494.42472396 -416.99932861 491.57826233 C-418.23522134 490.35882347 -418.23522134 490.35882347 -419.49608159 489.11474949 C-432.61720142 475.84648267 -439.33797588 459.06185877 -439.30053711 440.47460938 C-438.57675148 414.5758031 -422.92928838 397.85175778 -405.6086731 380.57844543 C-404.04105065 379.00779946 -402.47386205 377.43672038 -400.90706813 375.86524791 C-396.6163393 371.56425664 -392.31942027 367.2694974 -388.0214169 362.97577727 C-383.85816269 358.81473941 -379.69960525 354.64901612 -375.54086623 350.48346634 C-365.98994018 340.91732806 -356.43228255 331.35793464 -346.87251247 321.80063561 C-339.49035009 314.42030803 -332.10999011 307.03818237 -324.73089218 299.65479088 C-323.66961387 298.59291016 -322.60833496 297.53103005 -321.54705545 296.46915054 C-319.94770382 294.86889163 -318.34835288 293.26863203 -316.74900582 291.66836856 C-301.88652255 276.79746026 -287.02199918 261.9285937 -272.15321541 247.06398487 C-271.59310882 246.50403466 -271.03300224 245.94408445 -270.45592272 245.36716605 C-267.61725624 242.52930532 -264.77856975 239.6914646 -261.93987526 236.85363189 C-261.37612888 236.2900566 -260.8123825 235.7264813 -260.23155289 235.14582797 C-259.0915225 234.00614423 -257.95149116 232.86646143 -256.81145889 231.72677956 C-239.06749757 213.98817696 -221.33019708 196.24293838 -203.59814453 178.49243164 C-183.66379589 158.53736101 -163.72445421 138.5872988 -143.77773273 118.64459532 C-141.65051183 116.51776976 -139.52330783 114.39092731 -137.39611435 112.26407433 C-136.61048792 111.478584 -136.61048792 111.478584 -135.80899026 110.67722518 C-127.90836543 102.77776551 -120.01165151 94.87441048 -112.11691666 86.96906471 C-103.13845654 77.97854922 -94.15476161 68.9933028 -85.16407503 60.01501326 C-80.57783473 55.43466747 -75.99403642 50.85194663 -71.41673279 46.26266861 C-67.22497719 42.06007479 -63.02633472 37.86449086 -58.82214223 33.67433973 C-57.30412013 32.15897016 -55.78861424 30.64107479 -54.27592255 29.12038419 C-38.3620883 13.12826802 -23.12068964 1.91892363 0 0 Z " fill="#4B5FAB" transform="translate(788.9296875,929.83984375)"/>
<path d="M0 0 C52.24678507 -1.10301538 104.57940711 16.87071172 144.15625 51.12109375 C145.34541016 52.14396484 145.34541016 52.14396484 146.55859375 53.1875 C149.13527981 55.45515077 151.65302349 57.77252061 154.15625 60.12109375 C154.68089844 60.61174316 155.20554687 61.10239258 155.74609375 61.60791016 C165.34209862 70.65818381 173.48941141 80.39864942 181.15625 91.12109375 C181.60983887 91.75128418 182.06342773 92.38147461 182.53076172 93.03076172 C214.83873941 138.35351595 226.99503602 197.00333325 217.98876953 251.72998047 C217.41979915 254.8705253 216.80477612 257.99605853 216.15625 261.12109375 C215.95257812 262.10287598 215.74890625 263.0846582 215.5390625 264.09619141 C207.11277336 302.9702522 187.51281279 337.54119795 160.15625 366.12109375 C159.63579102 366.67410156 159.11533203 367.22710938 158.57910156 367.796875 C120.87115408 407.73619535 66.67198038 430.36045077 12.04443359 432.19189453 C-41.42562208 433.5912648 -94.22271259 416.27513708 -134.84375 381.12109375 C-135.63652344 380.43917969 -136.42929688 379.75726562 -137.24609375 379.0546875 C-164.5390167 355.03514591 -184.85781179 326.14210542 -197.84375 292.12109375 C-198.12202637 291.39486816 -198.40030273 290.66864258 -198.68701172 289.92041016 C-203.54241587 276.98927042 -206.40582038 263.69410254 -208.84375 250.12109375 C-208.97797363 249.40228027 -209.11219727 248.6834668 -209.25048828 247.94287109 C-218.50869299 196.3391225 -204.35814512 137.9414803 -174.84375 95.12109375 C-167.55238447 84.80940807 -159.625248 75.19159545 -150.84375 66.12109375 C-150.34407715 65.59563965 -149.8444043 65.07018555 -149.32958984 64.52880859 C-141.4249656 56.23030709 -133.13220644 48.83889176 -123.84375 42.12109375 C-122.8527832 41.40421387 -122.8527832 41.40421387 -121.84179688 40.67285156 C-85.79098792 14.94892062 -44.21260767 1.39287687 0 0 Z M-40.84375 120.12109375 C-41.48763672 120.43143555 -42.13152344 120.74177734 -42.79492188 121.06152344 C-67.30442663 133.17280554 -86.23025966 154.44875072 -95.5625 180.1796875 C-105.20588027 208.75614147 -103.10326816 238.17765409 -89.796875 265.28125 C-77.1387277 289.71562449 -54.83255069 308.37206892 -28.84375 317.12109375 C1.17463438 325.92798555 30.17962049 323.1059886 57.77148438 308.2722168 C63.4056737 305.1216731 68.31216406 301.38714591 73.15625 297.12109375 C73.97480469 296.445625 74.79335937 295.77015625 75.63671875 295.07421875 C96.52065085 277.33097101 108.36238204 251.1744326 110.74414062 224.16967773 C112.9471147 194.63190938 102.63608493 167.24162882 83.56420898 144.91430664 C65.49443667 124.50879786 39.61339883 112.24502803 12.53613281 109.89355469 C-5.98510024 108.79676659 -24.11612718 112.00562457 -40.84375 120.12109375 Z " fill="#F6A81C" transform="translate(1204.84375,1027.87890625)"/>
<path d="M0 0 C9.86829901 7.54423861 18.49202872 16.76676466 27.26899719 25.51954651 C27.96820597 26.21592791 28.66741474 26.9123093 29.38781166 27.62979317 C33.0814441 31.30853934 36.77227314 34.99006985 40.46064758 38.67408752 C44.24627052 42.45421224 48.04109862 46.2249531 51.83813763 49.99360561 C54.78161733 52.91837965 57.71828804 55.84992004 60.65319252 58.78329659 C62.04879991 60.17589961 63.44688114 61.56602844 64.84758568 62.95350456 C80.39319661 78.36261243 91.74168554 93.60103842 92.56977844 116.33595276 C92.38488811 126.4278836 90.19137599 135.81793662 85.88227844 144.89845276 C85.61350891 145.49416077 85.34473938 146.08986877 85.06782532 146.70362854 C82.72867906 151.29242542 79.47981865 154.94779099 75.98622131 158.68902588 C75.45802441 159.25745608 74.92982751 159.82588628 74.38562465 160.41154164 C68.34644679 166.87183626 62.10253017 173.12360567 55.84028625 179.36647034 C54.53782494 180.6686487 53.23558552 181.97104903 51.93354797 183.27365112 C48.44073625 186.76674662 44.94487738 190.25677737 41.44841099 193.74621415 C37.77910599 197.409215 34.11268345 201.07509882 30.44593811 204.74066162 C23.52098453 211.66252252 16.59348868 218.58183313 9.66504741 225.50020283 C1.76933163 233.38469298 -6.1235026 241.27206508 -14.0161109 249.1596657 C-30.23430486 265.36744206 -46.45606598 281.57164419 -62.68022156 297.77345276 C-59.49711733 301.54402948 -56.32321698 305.26351558 -52.78959656 308.71412659 C-52.08866882 309.40206802 -51.38774109 310.09000946 -50.66557312 310.79879761 C-49.5590741 311.87873238 -49.5590741 311.87873238 -48.43022156 312.98048401 C-46.83602369 314.55229552 -45.24228786 316.12457575 -43.64897156 317.69728088 C-41.16531577 320.14390744 -38.67880808 322.58733264 -36.18412781 325.02272034 C-33.7567996 327.39516523 -31.34270565 329.78045783 -28.93022156 332.16798401 C-27.82372253 333.23880974 -27.82372253 333.23880974 -26.69487 334.33126831 C-15.56265066 345.40742668 -10.34404331 358.12262434 -10.18022156 373.77345276 C-10.34429171 389.44801162 -15.76388613 402.18519875 -26.41850281 413.67189026 C-38.95012247 425.31612407 -53.11306626 428.29201789 -69.57865906 428.05079651 C-95.53994315 427.08838078 -112.95326175 403.65542656 -129.90802538 386.7056917 C-132.63219411 383.98339537 -135.35920171 381.26394503 -138.08578491 378.54406738 C-144.02611352 372.61722744 -149.96274748 366.68669626 -155.89854455 360.7553184 C-159.61014974 357.04648841 -163.32248633 353.33839108 -167.03494835 349.63041878 C-177.3320839 339.34545716 -187.62828553 329.05956263 -197.92103291 318.77020931 C-198.90587671 317.78569486 -198.90587671 317.78569486 -199.91061635 316.78129122 C-200.56863928 316.12348657 -201.22666222 315.46568191 -201.90462524 314.78794378 C-203.23778144 313.45523103 -204.5709392 312.12251983 -205.90409851 310.78981018 C-206.89601179 309.79822905 -206.89601179 309.79822905 -207.90796372 308.78661598 C-218.63790874 298.06062435 -229.37459961 287.34141242 -240.11418948 276.62507873 C-251.16385813 265.59914356 -262.20787308 254.56757168 -273.24626416 243.53034598 C-279.43484226 237.34268282 -285.62579483 231.15743842 -291.82300758 224.97842216 C-297.09498425 219.72187255 -302.36175764 214.46017769 -307.62190352 209.19178813 C-310.30256357 206.50723257 -312.98554561 203.82511577 -315.67518997 201.14955902 C-318.59677449 198.24313717 -321.50648645 195.32510378 -324.4152832 192.40588379 C-325.25828029 191.5709431 -326.10127739 190.73600242 -326.96981984 189.8757605 C-333.81213632 182.97613747 -339.97073922 175.59520257 -343.55522156 166.46095276 C-344.13916687 165.01269104 -344.13916687 165.01269104 -344.73490906 163.53517151 C-349.46994895 149.70181116 -347.69095344 133.00246163 -341.35990906 120.07814026 C-333.75173762 106.48321097 -322.53831349 97.48950242 -307.68022156 92.77345276 C-294.68067748 89.32695442 -278.77605265 90.83364957 -267.04721069 97.20339966 C-260.04337281 101.54760098 -254.38107369 106.54081513 -248.63725281 112.42579651 C-247.74277939 113.32592972 -246.84830597 114.22606293 -245.92672729 115.1534729 C-243.58334108 117.51527956 -241.24903076 119.88534084 -238.91886902 122.26014709 C-236.52585526 124.69453625 -234.12106523 127.11723498 -231.71733093 129.54103088 C-227.02753998 134.27463793 -222.34939135 139.01950868 -217.68022156 143.77345276 C-210.56467855 137.96889592 -204.20562923 131.40943438 -197.74345398 124.90260315 C-196.43870653 123.59265628 -195.13371229 122.28295517 -193.82849121 120.97348022 C-191.02749233 118.1625744 -188.22796693 115.35021219 -185.42951012 112.53677559 C-180.99818384 108.08229252 -176.56189926 103.63276997 -172.12463379 99.1842041 C-159.5104886 86.53670289 -146.90050746 73.88507112 -134.30107117 61.22291565 C-127.33525433 54.22250688 -120.36403565 47.22752461 -113.38683015 40.2384662 C-108.98050991 35.8240775 -104.58082258 31.40321808 -100.18597639 26.97740757 C-97.44249628 24.21784416 -94.69266522 21.46467735 -91.94103813 18.71323967 C-90.67349388 17.44328759 -89.40850162 16.17078201 -88.14637375 14.89544678 C-64.23311902 -9.25740628 -30.44864386 -21.87543281 0 0 Z " fill="#F6A81C" transform="translate(360.6802215576172,1558.226547241211)"/>
</svg>
