<?xml version="1.0" encoding="UTF-8"?>
<svg version="1.1" xmlns="http://www.w3.org/2000/svg" width="245" height="200">
<path d="M0 0 C0.78912791 -0.00297112 1.57825581 -0.00594224 2.39129668 -0.0090034 C5.04430712 -0.01769785 7.69727246 -0.01919929 10.35029602 -0.02069092 C12.24906511 -0.02531863 14.14783327 -0.03034323 16.04660034 -0.03573608 C21.21208401 -0.04886816 26.37755468 -0.05530682 31.54305243 -0.05974674 C34.77020744 -0.06267667 37.99735888 -0.06678136 41.2245121 -0.07125092 C51.32124747 -0.08492908 61.41797471 -0.0945937 71.51471871 -0.09845281 C83.17001424 -0.10293199 94.8251924 -0.12047212 106.48045224 -0.1494534 C115.48863359 -0.17107488 124.49678194 -0.18115737 133.50498897 -0.18249393 C138.88534702 -0.18354178 144.26559479 -0.18944532 149.64592552 -0.20731354 C154.7094149 -0.22380181 159.77271121 -0.22594599 164.83621788 -0.21717453 C166.69214393 -0.21640452 168.5480804 -0.22074217 170.40398026 -0.23063278 C172.94329566 -0.24336899 175.481929 -0.23746653 178.02124023 -0.22705078 C178.75073511 -0.23510719 179.48022999 -0.24316359 180.23183078 -0.25146413 C186.24169765 -0.19405501 191.59870311 1.13567891 196.53511047 4.76153564 C201.57554029 10.46421171 202.98925894 15.75045647 204.32807922 23.14044189 C204.69204997 24.92338591 205.05810942 26.70590423 205.42573547 28.48809814 C205.81218795 30.43424995 206.19628471 32.38087094 206.57807922 34.32794189 C206.85977966 35.7174707 206.85977966 35.7174707 207.14717102 37.1350708 C208.21492706 42.8738114 208.87147124 48.42103162 207.32807922 54.14044189 C204.73160755 57.43866267 202.24702322 59.67075162 198.32807922 61.14044189 C195.44645536 61.33289413 192.66223501 61.41449823 189.78094482 61.40113831 C188.47429834 61.40687663 188.47429834 61.40687663 187.14125496 61.41273087 C184.21705915 61.42306474 181.29305954 61.41906801 178.36885071 61.4151001 C176.27463092 61.41944628 174.18041272 61.42462912 172.0861969 61.43058777 C166.39424723 61.44399716 160.70236388 61.44455441 155.01040149 61.44202447 C150.26350113 61.44095635 145.51661427 61.44583389 140.7697168 61.45062989 C129.57570042 61.46173119 118.38171759 61.46215858 107.18769836 61.45611572 C95.62579736 61.45007047 84.06401787 61.46239956 72.5021376 61.48368579 C62.58531142 61.50127442 52.66852403 61.5073076 42.75168282 61.50404805 C36.82433491 61.50223111 30.89707375 61.50491239 24.96973991 61.51876259 C19.39900756 61.53129228 13.82846547 61.52944308 8.25773621 61.5163517 C6.20943196 61.51397596 4.16111453 61.51675602 2.11282539 61.52497482 C-0.67559719 61.53535966 -3.4633715 61.52740866 -6.25177002 61.5146637 C-7.4777275 61.52572512 -7.4777275 61.52572512 -8.72845179 61.53701001 C-14.17143853 61.48439202 -14.17143853 61.48439202 -16.6669302 59.76939678 C-18.17166586 57.33042217 -18.21964619 55.94753463 -17.67192078 53.14044189 C-16.82629578 52.60419189 -15.98067078 52.06794189 -15.10942078 51.51544189 C-12.42998451 49.44756586 -12.42998451 49.44756586 -12.57572937 46.91094971 C-13.47342643 39.04147181 -14.85541757 31.32190804 -16.47465515 23.57012939 C-17.64870168 17.39705085 -18.03268858 12.08602159 -15.67192078 6.14044189 C-10.96783477 0.35079758 -7.08304216 -0.00828643 0 0 Z " fill="#F48B1A" transform="translate(36.67192077636719,-0.14044189453125)"/>
<path d="M0 0 C1.08154861 -0.00945648 2.16309723 -0.01891296 3.27742004 -0.02865601 C4.44617172 -0.02258331 5.6149234 -0.01651062 6.8190918 -0.01025391 C8.62255318 -0.01455917 8.62255318 -0.01455917 10.46244812 -0.01895142 C13.0086616 -0.02099472 15.55489068 -0.01544638 18.10107422 -0.00292969 C21.99246558 0.01307728 25.88281159 -0.00274877 29.77416992 -0.02197266 C32.2474795 -0.01998945 34.72078843 -0.01614418 37.1940918 -0.01025391 C38.35677078 -0.0163266 39.51944977 -0.02239929 40.71736145 -0.02865601 C47.70273296 0.03189095 52.54724149 0.50034902 57.89331055 5.38818359 C62.96236529 13.77834317 63.86678444 24.85877806 65.55053711 34.41479492 C65.95852422 36.71598969 66.38264729 39.01385483 66.80737305 41.31201172 C67.07137809 42.79165416 67.33443325 44.27146646 67.59643555 45.75146484 C67.72342834 46.42969803 67.85042114 47.10793121 67.98126221 47.80671692 C68.6858944 51.91748875 68.85795863 55.3575236 67.70581055 59.38818359 C64.19419556 61.72926025 62.76784451 61.64099892 58.61376953 61.64697266 C57.35914413 61.65327698 56.10451874 61.6595813 54.81187439 61.66607666 C53.44188293 61.66249726 52.07189275 61.65839539 50.7019043 61.65380859 C49.29850701 61.65515574 47.89511017 61.65709669 46.49171448 61.65960693 C43.55204826 61.66255491 40.61250364 61.65827048 37.67285156 61.64892578 C33.90086175 61.63752081 30.12915621 61.6440992 26.35717678 61.65607071 C23.46016793 61.66328922 20.56322676 61.66100163 17.6662159 61.65581512 C16.27511626 61.65447914 14.88401052 61.65612456 13.49291801 61.66077423 C11.55143218 61.66584017 9.60992484 61.65675284 7.66845703 61.64697266 C6.56275864 61.64538147 5.45706024 61.64379028 4.31785583 61.64215088 C1.70581055 61.38818359 1.70581055 61.38818359 -0.29418945 59.38818359 C-0.73168945 56.51318359 -0.73168945 56.51318359 -0.29418945 53.38818359 C0.55143555 52.79005859 1.39706055 52.19193359 2.26831055 51.57568359 C3.07268555 50.85380859 3.87706055 50.13193359 4.70581055 49.38818359 C4.32413597 41.81700619 2.65586325 34.37909646 1.20581055 26.95068359 C0.98022461 25.76796875 0.75463867 24.58525391 0.5222168 23.36669922 C-0.39192458 17.71970009 -0.39192458 17.71970009 -2.29418945 12.38818359 C-3.94240189 11.35805082 -5.60922647 10.35703731 -7.29418945 9.38818359 C-8.29418945 8.38818359 -8.29418945 8.38818359 -8.54418945 6.01318359 C-8.29418945 3.38818359 -8.29418945 3.38818359 -7.10945129 1.74838257 C-4.65169412 -0.0932464 -3.05575776 0.00765866 0 0 Z " fill="#F4851C" transform="translate(107.294189453125,68.61181640625)"/>
<path d="M0 0 C1.70768806 -0.02882263 1.70768806 -0.02882263 3.44987488 -0.05822754 C5.30447075 -0.07097717 5.30447075 -0.07097717 7.1965332 -0.08398438 C8.4644722 -0.09538452 9.73241119 -0.10678467 11.03877258 -0.11853027 C13.72814287 -0.13745648 16.41706551 -0.15123498 19.10644531 -0.15820312 C22.53890947 -0.16913744 25.96977237 -0.21710598 29.40173626 -0.27414703 C32.68737936 -0.32056982 35.97310817 -0.32431205 39.2590332 -0.33398438 C40.4853093 -0.35867798 41.71158539 -0.38337158 42.97502136 -0.40881348 C52.52087732 -0.35917291 52.52087732 -0.35917291 56.78051758 3.08056641 C59.07029848 5.47822928 60.55974257 7.57300791 61.3293457 10.84570312 C61.54026855 11.70647461 61.75119141 12.56724609 61.96850586 13.45410156 C62.1636377 14.4005957 62.35876953 15.34708984 62.55981445 16.32226562 C62.78717285 17.37961914 63.01453125 18.43697266 63.2487793 19.52636719 C63.96070137 22.99281488 64.6114096 26.46611884 65.24731445 29.94726562 C65.58472656 31.71070313 65.58472656 31.71070313 65.92895508 33.50976562 C69.08898716 50.60659575 69.08898716 50.60659575 64.55981445 57.32226562 C60.36919308 60.58234338 56.39041188 60.83254585 51.2590332 60.93945312 C50.46382767 60.96451935 49.66862213 60.98958557 48.84931946 61.01541138 C47.1710595 61.06424911 45.49257484 61.10583849 43.81396484 61.140625 C41.26515947 61.19687182 38.71889285 61.28533755 36.17114258 61.37695312 C34.53382369 61.42057435 32.89645304 61.46230205 31.2590332 61.50195312 C30.13050179 61.54387283 30.13050179 61.54387283 28.97917175 61.5866394 C22.32606473 61.68371507 16.57659786 60.09255734 11.24731445 56.00976562 C6.52259658 51.28504775 5.14939516 46.35384458 4.0246582 39.87695312 C3.90047012 39.18465607 3.77628204 38.49235901 3.64833069 37.77908325 C3.25585922 35.58659243 2.87553633 33.39225588 2.49731445 31.19726562 C2.11442862 28.9953709 1.72875898 26.79410695 1.33558655 24.59402466 C0.98027247 22.60343538 0.63488736 20.61108137 0.29003906 18.61865234 C-0.33431566 15.80018444 -0.8646888 13.71856437 -2.44018555 11.32226562 C-3.30643555 10.86851562 -4.17268555 10.41476563 -5.06518555 9.94726562 C-5.84893555 9.41101563 -6.63268555 8.87476563 -7.44018555 8.32226562 C-7.87768555 5.25976562 -7.87768555 5.25976562 -7.44018555 2.32226562 C-4.82195501 -0.29596492 -3.65210199 0.04963443 0 0 Z " fill="#F3811D" transform="translate(119.440185546875,138.677734375)"/>
<path d="M0 0 C0.85916016 -0.01611328 1.71832031 -0.03222656 2.60351562 -0.04882812 C8.93640652 -0.05374115 8.93640652 -0.05374115 12.16015625 1.83203125 C12.62292969 2.32058594 13.08570312 2.80914062 13.5625 3.3125 C13.30688677 5.6556213 12.96979228 7.99093403 12.5625 10.3125 C8.92352049 12.13198976 4.63090712 11.49720453 0.625 11.5 C-0.29474609 11.51224609 -1.21449219 11.52449219 -2.16210938 11.53710938 C-3.04576172 11.53904297 -3.92941406 11.54097656 -4.83984375 11.54296875 C-5.64929443 11.54707764 -6.45874512 11.55118652 -7.29272461 11.55541992 C-9.4375 11.3125 -9.4375 11.3125 -12.4375 9.3125 C-12.8125 5.8125 -12.8125 5.8125 -12.4375 2.3125 C-8.27799575 -0.46050283 -4.88617832 -0.01824562 0 0 Z " fill="#F16C23" transform="translate(80.4375,68.6875)"/>
<path d="M0 0 C0.78246094 -0.02578125 1.56492187 -0.0515625 2.37109375 -0.078125 C5.08364994 0.32803315 5.92870852 1.08535513 7.5625 3.25 C7.9375 5.75 7.9375 5.75 7.5625 8.25 C5.94581504 10.37507645 5.05797648 11.15844456 2.40625 11.6484375 C1.24609375 11.63683594 1.24609375 11.63683594 0.0625 11.625 C-0.7109375 11.63273437 -1.484375 11.64046875 -2.28125 11.6484375 C-4.95609457 11.15417274 -5.87281221 10.45777953 -7.4375 8.25 C-7.25 4.625 -7.25 4.625 -6.4375 1.25 C-4.11063547 0.08656773 -2.59028587 0.05104012 0 0 Z " fill="#F05A28" transform="translate(7.4375,49.75)"/>
<path d="M0 0 C2.5625 1.6875 2.5625 1.6875 4 4 C3.83849795 7.39154295 3.41703243 8.58296757 1 11 C-1.05859375 11.265625 -1.05859375 11.265625 -3.4375 11.25 C-4.61119141 11.25773438 -4.61119141 11.25773438 -5.80859375 11.265625 C-8 11 -8 11 -11 9 C-11.375 5.5 -11.375 5.5 -11 2 C-7.31826358 -0.45449095 -4.27666592 -0.69560229 0 0 Z " fill="#F16C23" transform="translate(99,119)"/>
</svg>
