<?xml version="1.0" encoding="UTF-8" standalone="no"?><!DOCTYPE svg PUBLIC "-//W3C//DTD SVG 1.1//EN" "http://www.w3.org/Graphics/SVG/1.1/DTD/svg11.dtd"><svg width="100%" height="100%" viewBox="0 0 240 240" version="1.1" xmlns="http://www.w3.org/2000/svg" xmlns:xlink="http://www.w3.org/1999/xlink" xml:space="preserve" xmlns:serif="http://www.serif.com/" style="fill-rule:evenodd;clip-rule:evenodd;stroke-linejoin:round;stroke-miterlimit:2;"><rect id="_240-x-240-black" serif:id="240 x 240 black" x="0" y="0" width="240" height="240" style="fill:none;"/><clipPath id="_clip1"><rect x="0" y="0" width="240" height="240"/></clipPath><g clip-path="url(#_clip1)"><g><path d="M120,0l60.607,34.991l-37.811,0l-22.796,-13.161l-13.161,7.599l-28.358,49.118l-15.197,8.774l0,29.037l-18.906,-32.745l0,-7.207l20.263,-11.699l28.358,-49.118l27.001,-15.589Z"/><path d="M16.077,59.994l60.607,-34.991l-18.906,32.745l-22.796,13.161l0,15.197l28.358,49.118l0,17.548l25.147,14.519l-37.811,0l-6.241,-3.603l-0,-23.398l-28.358,-49.118l-0,-31.178Z"/><path d="M223.923,60.012l-0,69.983l-18.906,-32.745l0,-26.322l-13.161,-7.599l-56.717,0l-15.197,-8.774l-25.147,14.519l18.906,-32.745l6.241,-3.603l20.263,11.699l56.717,0l27.001,15.589Z"/><path d="M120,240l-60.607,-34.991l37.811,-0l22.796,13.161l13.161,-7.599l28.358,-49.118l15.197,-8.774l-0,-29.037l18.906,32.745l-0,7.207l-20.263,11.699l-28.358,49.118l-27.001,15.589Z"/><path d="M223.923,180.006l-60.607,34.991l18.906,-32.745l22.796,-13.161l-0,-15.197l-28.358,-49.118l0,-17.548l-25.147,-14.519l37.811,-0l6.241,3.603l0,23.398l28.358,49.118l0,31.178Z"/><path d="M16.077,179.988l0,-69.983l18.906,32.745l0,26.322l13.161,7.599l56.717,0l15.197,8.774l25.147,-14.519l-18.906,32.745l-6.241,3.603l-20.263,-11.699l-56.717,-0l-27.001,-15.589Z"/></g></g></svg>